<?xml version="1.0" encoding="UTF-8" standalone="no"?>
<svg width="149px" height="303px" viewBox="0 0 149 303" version="1.1" xmlns="http://www.w3.org/2000/svg" xmlns:xlink="http://www.w3.org/1999/xlink">
    <!-- Generator: Sketch 41.2 (35397) - http://www.bohemiancoding.com/sketch -->
    <title>Group 6</title>
    <desc>Created with Sketch.</desc>
    <defs>
        <polygon id="path-1" points="23.105061 4 125.270087 4 145.703093 25.6552633 145.703093 276.06542 125.270087 298.927606 29.2349626 298.927606 4.57410667 276.067413 3 24.7303115"></polygon>
        <mask id="mask-2" maskContentUnits="userSpaceOnUse" maskUnits="objectBoundingBox" x="0" y="0" width="142.703093" height="294.927606" fill="white">
            <use xlink:href="#path-1"></use>
        </mask>
        <polygon id="path-3" points="26.6306686 0.0425921836 0.425885175 0.0425921836 0.425885175 29.9646099 26.6306686 29.9646099 26.6306686 0.0425921836"></polygon>
        <polygon id="path-5" points="19.8822292 30.0262005 19.8822292 0.0425921836 0.133456059 0.0425921836 0.133456059 30.0262005 19.8822292 30.0262005"></polygon>
    </defs>
    <g id="Photo-driven-mock" stroke="none" stroke-width="1" fill="none" fill-rule="evenodd">
        <g id="Fuel-Home-Middle" transform="translate(-438.000000, -837.000000)">
            <g id="Group" transform="translate(437.000000, 103.000000)">
                <g id="Group-6" transform="translate(1.000000, 734.000000)">
                    <polygon id="Rectangle-5-Copy-3" fill="#FFFFFF" points="20.9571263 0 127.451972 0 148.750941 21.8696916 148.750941 278.449277 127.451972 302.619423 27.3468171 302.619423 1.64081831 278.451355 -5.68434189e-14 20.9055398"></polygon>
                    <use id="Rectangle-5-Copy-3" stroke="#2B2A29" mask="url(#mask-2)" stroke-width="4.25999975" xlink:href="#path-1"></use>
                  
                    
                    <g id="Page-1-Copy-9" transform="translate(25.000000, 30.000000)">
                        <polygon id="Fill-1" fill="#2B2A29" points="59.9949671 0.560591595 53.7244615 30.5438076 71.7495407 30.5438076 72.9252251 24.9227602 61.5111005 24.9227602 62.7287736 19.1010812 74.1428981 19.1010812 75.415043 13.017124 64.0009185 13.017124 65.2827095 6.89001425 76.696834 6.89001425 78.0126699 0.560591595"></polygon>
                        <polygon id="Fill-2" fill="#2B2A29" points="6.25473142 0.560591595 0.000113483043 30.4659087 6.85221965 30.4362063 9.30799271 18.6919721 20.7255217 18.6919721 21.998234 12.6080149 10.580705 12.6080149 11.8619286 6.48090512 23.2794576 6.48090512 24.5096138 0.560591595"></polygon>
                        <g id="Group-17" transform="translate(26.101100, 0.517719)">
                            <g id="Group-5">
                                <mask id="mask-4" fill="white">
                                    <use xlink:href="#path-3"></use>
                                </mask>
                                <g id="Clip-4"></g>
                                <path d="M4.74886818,29.9646099 C1.28309603,29.7931203 -0.0923184558,27.4869778 0.599360694,24.2948057 L5.66297409,0.0424800989 L12.6081364,0.0424800989 L8.09548313,21.6580133 C7.83560696,22.8590008 7.85887098,24.0773614 9.16335857,24.1418101 L13.0666078,24.1418101 C14.3983314,24.0773614 14.9311342,22.8590008 15.1734205,21.6580133 L19.6860738,0.0424800989 L26.6306686,0.0424800989 L21.5670552,24.2948057 C20.9230389,27.4869778 18.583586,29.7931203 15.0457521,29.9646099 L4.74886818,29.9646099 Z" id="Fill-3" fill="#2B2A29" mask="url(#mask-4)"></path>
                            </g>
                            <g id="Group-8" transform="translate(52.769615, 0.000000)">
                                <mask id="mask-6" fill="white">
                                    <use xlink:href="#path-5"></use>
                                </mask>
                                <g id="Clip-7"></g>
                                <polygon id="Fill-6" fill="#2B2A29" mask="url(#mask-6)" points="8.1890499 24.2353448 13.2407476 0.0424240566 6.39601781 0.0424240566 0.133456059 30.0262005 18.7026865 30.0262005 19.8823427 24.2353448"></polygon>
                            </g>
                            <path d="M6.55086542,42.4345925 C6.46915763,42.7770113 5.95167495,43.6652825 4.55640094,43.6652825 C3.49192999,43.6652825 2.35482989,43.1149466 2.35482989,41.5687383 C2.35482989,40.5739866 2.74918347,39.3881305 4.62789525,39.3881305 C6.11168605,39.3881305 6.45553967,40.3750363 6.45780933,40.384003 L8.25708298,40.1811298 C7.83152157,38.5542204 6.51738793,37.6581033 4.55640094,37.6581033 C2.01381335,37.6581033 0.495977641,39.0642058 0.495977641,41.4185448 C0.495977641,43.8709579 2.01438076,45.3941889 4.4582381,45.3941889 C7.45475786,45.3941889 8.19580214,43.6154048 8.37113344,42.555644 L6.55086542,42.4345925 Z" id="Fill-9" fill="#2B2A29"></path>
                            <path d="M16.6398484,41.9311081 L17.5601959,39.8782769 L18.4816782,41.9311081 L16.6398484,41.9311081 Z M16.6608428,37.8265666 L13.1774808,45.2258376 L15.1600295,45.2258376 L15.8500065,43.6611353 L19.2442843,43.6611353 L19.9246151,45.2258376 L21.8958156,45.2258376 L18.4618187,37.8265666 L16.6608428,37.8265666 Z" id="Fill-11" fill="#2B2A29"></path>
                            <polygon id="Fill-13" fill="#2B2A29" points="27.2138012 45.2257816 29.0465524 45.2257816 29.0465524 42.3905993 33.767447 42.3905993 33.767447 40.6616929 29.0465524 40.6616929 29.0465524 39.5565378 33.767447 39.5565378 33.767447 37.827071 27.2138012 37.827071"></polygon>
                            <polygon id="Fill-15" fill="#2B2A29" points="39.6533018 45.2257816 46.0548803 45.2257816 46.0548803 43.4957544 41.4860529 43.4957544 41.4860529 42.3905993 46.0548803 42.3905993 46.0548803 40.6616929 41.4860529 40.6616929 41.4860529 39.5565378 46.0548803 39.5565378 46.0548803 37.827071 39.6533018 37.827071"></polygon>
                        </g>
                    </g>
                </g>
            </g>
        </g>
    </g>
</svg>