<?xml version="1.0" encoding="UTF-8" standalone="no"?>
<svg width="760px" height="45px" viewBox="0 0 760 45" version="1.1" xmlns="http://www.w3.org/2000/svg" xmlns:xlink="http://www.w3.org/1999/xlink">
    <!-- Generator: Sketch 41.2 (35397) - http://www.bohemiancoding.com/sketch -->
    <title>Group 9</title>
    <desc>Created with Sketch.</desc>
    <defs>
        <polygon id="path-1" points="27 13.7770834 40.2893668 4 245.932211 4 256.426229 13.7770834 256.426229 31.1529169 244.484892 40.9300003 41.2669754 40.9300003 27 31.1529169"></polygon>
        <mask id="mask-2" maskContentUnits="userSpaceOnUse" maskUnits="objectBoundingBox" x="0" y="0" width="229.426229" height="36.9300003" fill="white">
            <use xlink:href="#path-1"></use>
        </mask>
        <polygon id="path-3" points="549 13.7770834 562.289367 4 767.932211 4 778.426229 13.7770834 778.426229 31.1529169 766.484892 40.9300003 563.266975 40.9300003 549 31.1529169"></polygon>
        <mask id="mask-4" maskContentUnits="userSpaceOnUse" maskUnits="objectBoundingBox" x="0" y="0" width="229.426229" height="36.9300003" fill="white">
            <use xlink:href="#path-3"></use>
        </mask>
    </defs>
    <g id="Photo-driven-mock" stroke="none" stroke-width="1" fill="none" fill-rule="evenodd">
        <g id="Fuel-Home-Middle" transform="translate(-145.000000, -1484.000000)">
            <g id="Footer-dark-Copy" transform="translate(122.000000, 1484.000000)">
                <g id="Group-9">
                    <polygon id="Rectangle-8" fill="#FFFFFF" points="23 11.4583333 38.5870643 0 248.691594 0 261 11.4583333 261 33.5416667 246.994037 45 39.7336989 45 23 33.5416667"></polygon>
                    <polygon id="Rectangle-8-Copy-3" fill="#FFFFFF" points="545 11.4583333 560.587064 0 770.691594 0 783 11.4583333 783 33.5416667 768.994037 45 561.733699 45 545 33.5416667"></polygon>
                    <use id="Rectangle-8" stroke="#2B2A29" mask="url(#mask-2)" stroke-width="2" xlink:href="#path-1"></use>
                    <use id="Rectangle-8-Copy-4" stroke="#2B2A29" mask="url(#mask-4)" stroke-width="2" xlink:href="#path-3"></use>
                    <g id="Group-11-Copy" transform="translate(0.000000, 10.000000)" fill="#2B2A29" font-weight="normal">
                    </g>
                </g>
            </g>
        </g>
    </g>
</svg>